<svg width="24" height="24" viewBox="0 0 24 24" fill="none" xmlns="http://www.w3.org/2000/svg">
<g id="Icons / Formatting / backgroundColor">
<path id="Vector" d="M9.91756 12.2409L17.6655 6.85076L18.8449 8.14667L12.7509 15.3541L9.91756 12.2409ZM7.58746 12.6521L12.1228 17.6354C12.2167 17.7284 12.3292 17.8004 12.453 17.8467C12.5768 17.893 12.709 17.9125 12.8409 17.9039C12.9728 17.8953 13.1013 17.8588 13.2181 17.7969C13.3348 17.7349 13.4371 17.6489 13.5181 17.5445L20.9695 8.73151C21.1179 8.5684 21.202 8.35684 21.2059 8.13632C21.2098 7.91581 21.1333 7.7014 20.9908 7.53311L18.4778 4.77195C18.3236 4.61422 18.1174 4.51798 17.8975 4.50118C17.6775 4.48437 17.459 4.54816 17.2827 4.68063L7.80905 11.2715C7.69748 11.3423 7.60223 11.4361 7.52958 11.5465C7.45693 11.6569 7.40853 11.7814 7.38759 11.9119C7.36664 12.0424 7.37363 12.1759 7.40808 12.3035C7.44254 12.4311 7.50367 12.5499 7.58746 12.6521ZM2.79395 18.5278L8.4113 19.5001L9.89044 18.1539L6.86155 14.8259L2.79395 18.5278Z" fill="black"/>
</g>
</svg>
