<svg width="30" height="24" viewBox="0 0 30 24" fill="none" xmlns="http://www.w3.org/2000/svg">
<g id="Icons / Formatting / fontSize">
<rect width="30" height="24" rx="4" fill="black"/>
<path id="Vector" d="M20.75 19H22.25L19.25 9H17.75L14.75 19H16.25L17 16.5H20L20.75 19ZM17.45 15L18.5 11.5L19.55 15H17.45ZM11.75 19H13.75L8.75 5H6.75L1.75 19H3.75L5.18 15H10.32L11.75 19ZM5.89 13L7.75 7.8L9.61 13H5.89Z" fill="white"/>
<path id="Vector_2" d="M27 19H28L26 13H25L23 19H24L24.5 17.5H26.5L27 19ZM24.8 16.6L25.5 14.5L26.2 16.6H24.8Z" fill="white"/>
</g>
</svg>
