<svg width="104" height="104" viewBox="0 0 104 104" fill="none" xmlns="http://www.w3.org/2000/svg">
<rect x="0.5" y="0.5" width="103" height="103" rx="5.5" fill="black" fill-opacity="0.04"/>
<path d="M65 41H39C38.4469 41 38 41.4469 38 42V62C38 62.5531 38.4469 63 39 63H65C65.5531 63 66 62.5531 66 62V42C66 41.4469 65.5531 41 65 41ZM63.75 60.75H40.25V59.5031L44.5781 54.3687L49.2688 59.9312L56.5656 51.2812L63.75 59.8V60.75ZM63.75 56.6938L56.7563 48.4C56.6562 48.2812 56.475 48.2812 56.375 48.4L49.2688 56.825L44.7688 51.4906C44.6688 51.3719 44.4875 51.3719 44.3875 51.4906L40.25 56.3969V43.25H63.75V56.6938ZM45.5 50.25C45.8611 50.25 46.2187 50.1789 46.5524 50.0407C46.886 49.9025 47.1892 49.6999 47.4445 49.4445C47.6999 49.1892 47.9025 48.886 48.0407 48.5524C48.1789 48.2187 48.25 47.8611 48.25 47.5C48.25 47.1389 48.1789 46.7813 48.0407 46.4476C47.9025 46.114 47.6999 45.8108 47.4445 45.5555C47.1892 45.3001 46.886 45.0975 46.5524 44.9593C46.2187 44.8211 45.8611 44.75 45.5 44.75C44.7707 44.75 44.0712 45.0397 43.5555 45.5555C43.0397 46.0712 42.75 46.7707 42.75 47.5C42.75 48.2293 43.0397 48.9288 43.5555 49.4445C44.0712 49.9603 44.7707 50.25 45.5 50.25ZM45.5 46.625C45.9844 46.625 46.375 47.0156 46.375 47.5C46.375 47.9844 45.9844 48.375 45.5 48.375C45.0156 48.375 44.625 47.9844 44.625 47.5C44.625 47.0156 45.0156 46.625 45.5 46.625Z" fill="#FF4D4F"/>
<rect x="0.5" y="0.5" width="103" height="103" rx="5.5" stroke="#FF4D4F"/>
</svg>
